# xmcd
#
# Track frame offsets:
#  150
#  34923
#  62476
#  83062
#  102812
#  119787
#  133960
#  171078
#  197400
#  211086
#  226404
#  248949
#  265440
#  305291
#
# Disc length: 4297 seconds
#
# Revision: 1
# Processed by: cddbd v1.5.1PL2 Copyright (c) Steve Scherf et al.
# Submitted via: Collectorz.com_Music_Collector 6.9
#
DISCID=c310c70e
DTITLE=Fleetwood Mac and Peter Green - A Fool No More
DYEAR=2001
DGENRE=Blues
TTITLE0=A Fool No More
TTITLE1=Just Another Guy
TTITLE2=Six String Guitar
TTITLE3=Rubbing My Eyes
TTITLE4=Long Way From Home
TTITLE5=I Like A Hot Tomato
TTITLE6=Funky Jam
TTITLE7=Gotta See Her Tonight
TTITLE8=Born On The Wild Side
TTITLE9=Bullet In The Sky
TTITLE10=Carry My Love
TTITLE11=Bad Bad Feeling
TTITLE12=White Sky
TTITLE13=Touch My Spirit
EXTD=
EXTT0=
EXTT1=
EXTT2=
EXTT3=
EXTT4=
EXTT5=
EXTT6=
EXTT7=
EXTT8=
EXTT9=
EXTT10=
EXTT11=
EXTT12=
EXTT13=
PLAYORDER=
